<mxfile host="app.diagrams.net" modified="2023-11-20T23:19:34.924Z" agent="Mozilla/5.0 (X11; Ubuntu; Linux x86_64; rv:109.0) Gecko/20100101 Firefox/119.0" version="22.1.3" etag="ppPBU2nPSH7s4WSRhGee" type="github">
  <diagram name="PÃ¡gina-1" id="vPChAK9TrQFLgZUeRdgk">
    <mxGraphModel>
      <root>
        <mxCell id="0" />
        <mxCell id="1" parent="0" />
      </root>
    </mxGraphModel>
  </diagram>
</mxfile>
